<svg xmlns:xlink="http://www.w3.org/1999/xlink" width="32" height="32" viewBox="0 0 250 250" fill="none" xmlns="http://www.w3.org/2000/svg"><title fill="none">Loading</title><path d="M103.125 236.693C126.438 241.464 147.768 236.693 147.768 236.693" class="path1" stroke="#EB1700" fill="none" stroke-width="25px"></path><path d="M188.938 219.639C208.283 207.238 220.188 188.389 220.188 188.389" class="LoadingSpinner__LoaderPath-sc-112yoq0-0 jrfKRF" stroke="#EB1700" fill="none" stroke-width="25px"></path><path d="M237.053 147.219C242.509 123.41 237.053 102.577 237.053 102.577" class="LoadingSpinner__LoaderPath-sc-112yoq0-0 gcaVZo" stroke="#EB1700" fill="none" stroke-width="25px"></path><path d="M220.188 61.9027C206.795 41.0696 188.442 30.157 188.442 30.157" class="LoadingSpinner__LoaderPath-sc-112yoq0-0 kooJxH" stroke="#EB1700" fill="none" stroke-width="25px"></path><path d="M147.768 13.1672C123.599 7.75904 103.126 13.1671 103.126 13.1671" class="LoadingSpinner__LoaderPath-sc-112yoq0-0 cMBlEX" stroke="#EB1700" fill="none" stroke-width="25px"></path><path d="M62.4514 30.1569C41.6183 43.5496 30.7057 61.9026 30.7057 61.9026" class="LoadingSpinner__LoaderPath-sc-112yoq0-0 fFBxBX" stroke="#EB1700" fill="none" stroke-width="25px"></path><path d="M13.8411 102.577C8.38479 126.386 13.8411 147.219 13.8411 147.219" class="LoadingSpinner__LoaderPath-sc-112yoq0-0 LJqcS" stroke="#EB1700" fill="none" stroke-width="25px"></path><path d="M30.706 187.893C43.6026 208.726 62.4516 219.639 62.4516 219.639" class="LoadingSpinner__LoaderPath-sc-112yoq0-0 cVEWhS" stroke="#EB1700" fill="none" stroke-width="25px"></path></svg>